<svg width="980" height="298" viewBox="0 0 980 298" fill="none" xmlns="http://www.w3.org/2000/svg">
<path d="M431.418 96.2904C435.788 96.2904 439.448 94.8789 442.368 92.0249C445.258 89.2018 446.708 85.5854 446.708 81.2272C446.708 76.869 445.248 73.4381 442.368 70.5223C439.448 67.6065 435.788 66.1641 431.418 66.1641C427.048 66.1641 423.378 67.6065 420.558 70.5223C417.728 73.4381 416.328 77.0854 416.328 81.4642C416.328 85.843 417.728 89.1915 420.558 92.0146C423.388 94.8686 427.018 96.2801 431.418 96.2801V96.2904Z" fill="#231F18"/>
<path d="M676.067 96.2904C680.437 96.2904 684.097 94.8789 687.017 92.0249C689.937 89.2018 691.357 85.5854 691.357 81.2272C691.357 76.869 689.927 73.4381 687.017 70.5223C684.097 67.6065 680.437 66.1641 676.067 66.1641C671.697 66.1641 668.057 67.6065 665.237 70.5223C662.377 73.4381 660.977 77.0854 660.977 81.4642C660.977 85.843 662.377 89.1915 665.237 92.0146C668.067 94.8686 671.667 96.2801 676.067 96.2801V96.2904Z" fill="#231F18"/>
<path d="M964.626 203.813L964.656 160.159V64H958.766L921.746 76.848V85.1008C926.896 86.4814 931.236 89.5517 934.306 93.6215C937.406 97.7015 939.186 102.822 939.186 108.283V203.824C939.186 212.808 935.386 220.103 923.356 220.103C911.326 220.103 907.556 212.808 907.556 203.824V155.038C907.556 143.046 904.406 133.608 898.126 126.643C891.846 119.678 883.336 116.185 872.686 116.185C864.176 116.185 856.256 118.607 848.876 123.48C841.496 128.322 834.416 136.328 827.656 147.517L836.616 154.297C840.546 148.166 844.656 143.653 848.996 140.841C853.306 137.987 857.896 136.575 862.776 136.575C869.206 136.575 874.086 138.543 877.386 142.396C880.686 146.291 882.326 151.814 882.326 158.923V168.855L857.776 179.065C848.666 182.96 841.976 187.256 837.746 191.944C833.496 196.632 831.376 202.309 831.376 208.934C831.376 216.043 833.636 221.998 838.216 226.779C842.766 231.56 848.656 233.95 855.896 233.95C861.846 233.95 867.506 231.992 872.856 228.129C876.156 225.707 879.576 222.307 883.096 217.949C887.496 242.996 910.206 231.045 938.566 231.045H979.956V220.103C968.306 219.907 964.626 212.684 964.626 203.813ZM868.116 214.529C864.186 214.529 861.006 213.395 858.596 211.129C856.156 208.862 854.936 205.637 854.936 201.444C854.936 197.25 856.216 193.654 858.836 190.739C861.426 187.823 865.386 185.804 870.706 184.67L882.316 182.403V207.759C882.316 208.316 882.316 208.893 882.346 209.418C877.616 212.818 872.886 214.539 868.116 214.539V214.529Z" fill="#231F18"/>
<path d="M814.128 203.813L814.148 160.158V156.017C814.148 143.385 811.288 133.669 805.548 126.89C799.808 120.079 791.828 116.679 781.618 116.679C773.608 116.679 766.798 118.699 761.228 122.748C756.588 126.117 751.198 131.516 745.098 138.934V118.606H738.018L704.808 131.485V139.49C713.798 142.53 719.868 151.205 719.868 160.952L719.898 203.803C719.898 212.797 716.118 220.092 704.088 220.092C692.058 220.092 688.278 212.797 688.278 203.803L688.328 118.606H681.248L648.008 131.485V139.49L648.748 139.769C657.318 142.654 663.088 150.865 663.088 160.158V203.813C663.088 212.807 659.298 220.102 647.268 220.102C635.238 220.102 631.458 212.807 631.458 203.813L631.488 155.038C631.488 142.901 628.748 133.484 623.248 126.766C617.738 120.048 610.208 116.679 600.628 116.679C595.268 116.679 590.568 117.534 586.458 119.224C582.378 120.914 578.448 123.552 574.708 127.106C571.578 130.084 567.948 134.009 563.878 138.944C562.478 134.473 560.488 130.578 557.838 127.23C552.268 120.203 544.828 116.679 535.578 116.679C528.348 116.679 521.948 118.616 516.378 122.501C511.738 125.715 506.438 130.898 500.458 138.017V118.606H493.408L460.168 131.732V139.738C469.158 142.777 475.258 151.452 475.258 161.199V203.803C475.258 212.797 471.758 220.092 459.448 220.092C447.138 220.092 443.638 212.797 443.638 203.803V118.606H436.608L403.368 131.485V139.49C412.388 142.53 418.458 151.205 418.458 160.952L418.488 203.803C418.488 212.797 414.708 220.092 402.678 220.092C390.648 220.092 386.868 212.797 386.868 203.803V64.0098H380.998L344.008 76.8578V85.1106C354.278 87.8409 361.448 97.3713 361.448 108.293V203.823C361.448 212.818 357.668 220.112 345.638 220.112H345.168V231.054H513.908V220.112C504.478 220.112 500.488 212.334 500.488 203.823V146.991C503.678 143.89 506.708 141.561 509.568 139.995C513.408 137.914 517.458 136.832 521.708 136.832C527.838 136.832 532.538 138.697 535.848 142.417C539.148 146.157 540.788 151.494 540.788 158.448V203.813C540.788 212.859 536.188 220.102 528.088 220.102V231.044H579.688V220.102C569.978 220.102 566.238 211.973 566.238 203.813V156.027C566.238 153.018 566.058 150.175 565.728 147.506C568.998 144.261 572.128 141.809 575.068 140.119C578.938 137.945 582.898 136.843 586.968 136.843C593.098 136.843 597.858 138.749 601.218 142.54C604.608 146.342 606.308 151.648 606.308 158.458V203.823C606.308 215.167 601.428 220.112 593.338 220.112V231.054H760.198V220.102C750.078 220.102 745.108 213.735 745.108 203.823L745.138 185.71V148.001C748.468 144.508 751.658 141.901 754.658 140.119C758.678 137.79 763.108 136.595 767.988 136.595C774.888 136.595 780.128 138.584 783.638 142.54C787.178 146.527 788.968 152.143 788.968 159.437V203.823C788.968 213.415 784.218 220.092 774.358 220.092V231.065H829.948V220.123C817.918 220.123 814.148 212.828 814.148 203.833L814.128 203.813Z" fill="#231F18"/>
<path d="M156.322 171.961H109.422V187.601H140.682V296.821C143.272 296.951 145.882 297.021 148.502 297.021C151.122 297.021 153.732 296.951 156.312 296.821V171.961H156.322Z" fill="#FF6D00"/>
<path d="M140.691 125.06H187.591V109.42H156.331V0.2C153.741 0.07 151.131 0 148.511 0C145.891 0 143.281 0.07 140.701 0.2V125.06H140.691Z" fill="#FF6D00"/>
<path d="M182.399 69.4908L182.509 69.1608L196.999 24.5508L201.769 9.88078C199.349 8.95078 196.889 8.08078 194.399 7.27078C191.909 6.46078 189.409 5.72078 186.909 5.05078L182.139 19.7208L167.649 64.3308L167.539 64.6608C170.059 65.2308 172.579 65.9308 175.079 66.7408C177.589 67.5508 180.029 68.4708 182.409 69.4908H182.399Z" fill="#FF6D00"/>
<path d="M192.52 74.6397C194.74 75.9697 196.92 77.3997 199.05 78.9497C201.18 80.4997 203.22 82.1297 205.17 83.8297L205.37 83.5397L232.94 45.5997L242.01 33.1197C239.99 31.4897 237.93 29.8997 235.81 28.3597C233.69 26.8197 231.54 25.3397 229.37 23.9297L220.3 36.4097L192.73 74.3497L192.53 74.6397H192.52Z" fill="#FF6D00"/>
<path d="M213.191 91.8498C214.891 93.7998 216.521 95.8398 218.071 97.9698C219.621 100.1 221.061 102.28 222.381 104.5L222.661 104.29L260.601 76.7198L273.081 67.6498C271.671 65.4798 270.191 63.3298 268.651 61.2098C267.111 59.0898 265.521 57.0198 263.891 55.0098L251.411 64.0698L213.471 91.6398L213.191 91.8498Z" fill="#FF6D00"/>
<path d="M227.861 114.5L227.531 114.61C228.551 116.99 229.461 119.43 230.281 121.93C231.091 124.44 231.791 126.95 232.361 129.47L232.691 129.36L277.301 114.87L291.971 110.1C291.301 107.6 290.561 105.1 289.751 102.6C288.941 100.11 288.071 97.6505 287.141 95.2305L272.471 99.9905L227.861 114.48V114.5Z" fill="#FF6D00"/>
<path d="M296.809 140.689H171.949V187.589H187.589V156.329H296.809C296.939 153.729 297.009 151.129 297.009 148.499C297.009 145.869 296.939 143.269 296.809 140.689Z" fill="#FF6D00"/>
<path d="M232.699 167.639L232.369 167.529C231.799 170.049 231.099 172.569 230.289 175.069C229.479 177.579 228.559 180.019 227.539 182.399L227.869 182.509L272.479 196.999L287.149 201.769C288.079 199.349 288.949 196.889 289.759 194.399C290.569 191.909 291.309 189.409 291.979 186.909L277.309 182.139L232.699 167.649V167.639Z" fill="#FF6D00"/>
<path d="M222.661 192.72L222.381 192.52C221.051 194.74 219.621 196.92 218.071 199.05C216.521 201.18 214.891 203.22 213.191 205.17L213.481 205.37L251.421 232.94L263.901 242.01C265.531 239.99 267.121 237.93 268.661 235.81C270.201 233.69 271.681 231.54 273.091 229.37L260.611 220.3L222.671 192.73L222.661 192.72Z" fill="#FF6D00"/>
<path d="M205.372 213.469L205.162 213.189C203.212 214.889 201.172 216.519 199.042 218.069C196.912 219.619 194.732 221.059 192.512 222.379L192.722 222.659L220.292 260.599L229.362 273.079C231.532 271.669 233.682 270.189 235.802 268.649C237.922 267.109 239.992 265.519 242.002 263.889L232.942 251.409L205.372 213.469Z" fill="#FF6D00"/>
<path d="M182.509 227.859L182.399 227.529C180.019 228.549 177.579 229.459 175.079 230.279C172.569 231.089 170.059 231.789 167.539 232.359L167.649 232.689L182.139 277.299L186.909 291.969C189.409 291.299 191.909 290.559 194.409 289.749C196.899 288.939 199.359 288.069 201.779 287.139L197.019 272.469L182.529 227.859H182.509Z" fill="#FF6D00"/>
<path d="M114.608 227.529L114.498 227.859L100.008 272.469L95.2383 287.139C97.6583 288.069 100.118 288.939 102.608 289.749C105.098 290.559 107.598 291.299 110.098 291.969L114.868 277.299L129.358 232.689L129.468 232.359C126.948 231.789 124.428 231.089 121.928 230.279C119.418 229.469 116.978 228.549 114.598 227.529H114.608Z" fill="#FF6D00"/>
<path d="M104.502 222.379C102.282 221.049 100.102 219.619 97.9717 218.069C95.8417 216.519 93.8017 214.889 91.8517 213.189L91.6517 213.479L64.0817 251.419L55.0117 263.899C57.0317 265.529 59.0917 267.119 61.2117 268.659C63.3317 270.199 65.4817 271.679 67.6517 273.089L76.7217 260.609L104.292 222.669L104.492 222.389L104.502 222.379Z" fill="#FF6D00"/>
<path d="M83.8314 205.16C82.1314 203.21 80.5014 201.17 78.9514 199.04C77.4014 196.91 75.9614 194.73 74.6414 192.51L74.3614 192.72L36.4214 220.29L23.9414 229.36C25.3514 231.53 26.8314 233.68 28.3714 235.8C29.9114 237.92 31.5014 239.99 33.1314 242L45.6114 232.94L83.5514 205.37L83.8314 205.16Z" fill="#FF6D00"/>
<path d="M69.1491 182.509L69.4791 182.399C68.4591 180.019 67.5491 177.579 66.7291 175.079C65.9191 172.569 65.2191 170.059 64.6491 167.539L64.3191 167.649L19.7091 182.139L5.03906 186.909C5.70906 189.409 6.44906 191.909 7.25906 194.409C8.06906 196.899 8.93906 199.359 9.86906 201.779L24.5391 197.019L69.1491 182.529V182.509Z" fill="#FF6D00"/>
<path d="M125.06 156.33V109.43H109.42V140.69H0.2C0.07 143.28 0 145.89 0 148.51C0 151.13 0.07 153.74 0.2 156.32H125.06V156.33Z" fill="#FF6D00"/>
<path d="M64.3191 129.37L64.6491 129.48C65.2191 126.96 65.9191 124.44 66.7291 121.94C67.5391 119.43 68.4591 116.99 69.4791 114.61L69.1491 114.5L24.5391 100.01L9.86906 95.2402C8.93906 97.6602 8.06906 100.12 7.25906 102.61C6.44906 105.1 5.70906 107.6 5.03906 110.1L19.7091 114.87L64.3191 129.36V129.37Z" fill="#FF6D00"/>
<path d="M74.3519 104.3L74.6319 104.5C75.9619 102.28 77.3919 100.1 78.9419 97.9698C80.4919 95.8398 82.1219 93.7998 83.8219 91.8498L83.5319 91.6498L45.5919 64.0798L33.1119 55.0098C31.4819 57.0298 29.8919 59.0898 28.3519 61.2098C26.8119 63.3298 25.3319 65.4798 23.9219 67.6498L36.4019 76.7198L74.3419 104.29L74.3519 104.3Z" fill="#FF6D00"/>
<path d="M91.6495 83.5397L91.8595 83.8197C93.8095 82.1197 95.8495 80.4897 97.9795 78.9397C100.11 77.3897 102.29 75.9497 104.51 74.6297L104.3 74.3497L76.7295 36.4097L67.6595 23.9297C65.4895 25.3397 63.3395 26.8197 61.2195 28.3597C59.0995 29.8997 57.0295 31.4897 55.0195 33.1197L64.0795 45.5997L91.6495 83.5397Z" fill="#FF6D00"/>
<path d="M114.5 69.1491L114.61 69.4791C116.99 68.4591 119.43 67.5491 121.93 66.7291C124.44 65.9191 126.95 65.2191 129.47 64.6491L129.36 64.3191L114.87 19.7091L110.1 5.03906C107.6 5.70906 105.1 6.44906 102.6 7.25906C100.11 8.06906 97.6505 8.93906 95.2305 9.86906L99.9905 24.5391L114.48 69.1491H114.5Z" fill="#FF6D00"/>
</svg>
