<svg width="636" height="165" viewBox="0 0 636 165" fill="none" xmlns="http://www.w3.org/2000/svg">
<path d="M87.4103 31.3396C91.7803 31.3396 95.4403 29.9696 98.3603 27.1996C101.25 24.4596 102.7 20.9496 102.7 16.7196C102.7 12.4896 101.24 9.15961 98.3603 6.32961C95.4403 3.49961 91.7803 2.09961 87.4103 2.09961C83.0403 2.09961 79.3703 3.49961 76.5503 6.32961C73.7203 9.15961 72.3203 12.6996 72.3203 16.9496C72.3203 21.1996 73.7203 24.4496 76.5503 27.1896C79.3803 29.9596 83.0103 31.3296 87.4103 31.3296V31.3396Z" fill="#231F18"/>
<path d="M332.059 31.3396C336.429 31.3396 340.089 29.9696 343.009 27.1996C345.929 24.4596 347.349 20.9496 347.349 16.7196C347.349 12.4896 345.919 9.15961 343.009 6.32961C340.089 3.49961 336.429 2.09961 332.059 2.09961C327.689 2.09961 324.049 3.49961 321.229 6.32961C318.369 9.15961 316.969 12.6996 316.969 16.9496C316.969 21.1996 318.369 24.4496 321.229 27.1896C324.059 29.9596 327.659 31.3296 332.059 31.3296V31.3396Z" fill="#231F18"/>
<path d="M620.618 135.7L620.648 93.33V0H614.758L577.738 12.47V20.48C582.888 21.82 587.228 24.8 590.298 28.75C593.398 32.71 595.178 37.68 595.178 42.98V135.71C595.178 144.43 591.378 151.51 579.348 151.51C567.318 151.51 563.548 144.43 563.548 135.71V88.36C563.548 76.72 560.398 67.56 554.118 60.8C547.838 54.04 539.328 50.65 528.678 50.65C520.168 50.65 512.248 53 504.868 57.73C497.488 62.43 490.408 70.2 483.648 81.06L492.608 87.64C496.538 81.69 500.648 77.31 504.988 74.58C509.298 71.81 513.888 70.44 518.768 70.44C525.198 70.44 530.078 72.35 533.378 76.09C536.678 79.87 538.318 85.23 538.318 92.13V101.77L513.768 111.68C504.658 115.46 497.968 119.63 493.738 124.18C489.488 128.73 487.368 134.24 487.368 140.67C487.368 147.57 489.628 153.35 494.208 157.99C498.758 162.63 504.648 164.95 511.888 164.95C517.838 164.95 523.498 163.05 528.848 159.3C532.148 156.95 535.568 153.65 539.088 149.42C543.488 173.73 566.198 162.13 594.558 162.13H635.948V151.51C624.298 151.32 620.618 144.31 620.618 135.7ZM524.108 146.1C520.178 146.1 516.998 145 514.588 142.8C512.148 140.6 510.928 137.47 510.928 133.4C510.928 129.33 512.208 125.84 514.828 123.01C517.418 120.18 521.378 118.22 526.698 117.12L538.308 114.92V139.53C538.308 140.07 538.308 140.63 538.338 141.14C533.608 144.44 528.878 146.11 524.108 146.11V146.1Z" fill="#231F18"/>
<path d="M470.12 135.7L470.14 93.3298V89.3098C470.14 77.0498 467.28 67.6198 461.54 61.0398C455.8 54.4298 447.82 51.1298 437.61 51.1298C429.6 51.1298 422.79 53.0898 417.22 57.0198C412.58 60.2898 407.19 65.5298 401.09 72.7298V52.9998H394.01L360.8 65.4998V73.2698C369.79 76.2198 375.86 84.6398 375.86 94.0998L375.89 135.69C375.89 144.42 372.11 151.5 360.08 151.5C348.05 151.5 344.27 144.42 344.27 135.69L344.32 52.9998H337.24L304 65.4998V73.2698L304.74 73.5398C313.31 76.3398 319.08 84.3098 319.08 93.3298V135.7C319.08 144.43 315.29 151.51 303.26 151.51C291.23 151.51 287.45 144.43 287.45 135.7L287.48 88.3598C287.48 76.5798 284.74 67.4398 279.24 60.9198C273.73 54.3998 266.2 51.1298 256.62 51.1298C251.26 51.1298 246.56 51.9598 242.45 53.5998C238.37 55.2398 234.44 57.7998 230.7 61.2498C227.57 64.1398 223.94 67.9498 219.87 72.7398C218.47 68.3998 216.48 64.6198 213.83 61.3698C208.26 54.5498 200.82 51.1298 191.57 51.1298C184.34 51.1298 177.94 53.0098 172.37 56.7798C167.73 59.8998 162.43 64.9298 156.45 71.8398V52.9998H149.4L116.16 65.7398V73.5098C125.15 76.4598 131.25 84.8798 131.25 94.3398V135.69C131.25 144.42 127.75 151.5 115.44 151.5C103.13 151.5 99.63 144.42 99.63 135.69V52.9998H92.6L59.36 65.4998V73.2698C68.38 76.2198 74.45 84.6398 74.45 94.0998L74.48 135.69C74.48 144.42 70.7 151.5 58.67 151.5C46.64 151.5 42.86 144.42 42.86 135.69V0.00976562H36.99L0 12.4798V20.4898C10.27 23.1398 17.44 32.3898 17.44 42.9898V135.71C17.44 144.44 13.66 151.52 1.63 151.52H1.16V162.14H169.9V151.52C160.47 151.52 156.48 143.97 156.48 135.71V80.5498C159.67 77.5398 162.7 75.2798 165.56 73.7598C169.4 71.7398 173.45 70.6898 177.7 70.6898C183.83 70.6898 188.53 72.4998 191.84 76.1098C195.14 79.7398 196.78 84.9198 196.78 91.6698V135.7C196.78 144.48 192.18 151.51 184.08 151.51V162.13H235.68V151.51C225.97 151.51 222.23 143.62 222.23 135.7V89.3198C222.23 86.3998 222.05 83.6398 221.72 81.0498C224.99 77.8998 228.12 75.5198 231.06 73.8798C234.93 71.7698 238.89 70.6998 242.96 70.6998C249.09 70.6998 253.85 72.5498 257.21 76.2298C260.6 79.9198 262.3 85.0698 262.3 91.6798V135.71C262.3 146.72 257.42 151.52 249.33 151.52V162.14H416.19V151.51C406.07 151.51 401.1 145.33 401.1 135.71L401.13 118.13V81.5298C404.46 78.1398 407.65 75.6098 410.65 73.8798C414.67 71.6198 419.1 70.4598 423.98 70.4598C430.88 70.4598 436.12 72.3898 439.63 76.2298C443.17 80.0998 444.96 85.5498 444.96 92.6298V135.71C444.96 145.02 440.21 151.5 430.35 151.5V162.15H485.94V151.53C473.91 151.53 470.14 144.45 470.14 135.72L470.12 135.7Z" fill="#231F18"/>
</svg>
