<svg width="297" height="298" viewBox="0 0 297 298" fill="none" xmlns="http://www.w3.org/2000/svg">
<path d="M156.322 171.961H109.422V187.601H140.682V296.821C143.272 296.951 145.882 297.021 148.502 297.021C151.122 297.021 153.732 296.951 156.312 296.821V171.961H156.322Z" fill="#000000"/>
<path d="M140.691 125.06H187.591V109.42H156.331V0.2C153.741 0.07 151.131 0 148.511 0C145.891 0 143.281 0.07 140.701 0.2V125.06H140.691Z" fill="#000000"/>
<path d="M182.399 69.4908L182.509 69.1608L196.999 24.5508L201.769 9.88078C199.349 8.95078 196.889 8.08078 194.399 7.27078C191.909 6.46078 189.409 5.72078 186.909 5.05078L182.139 19.7208L167.649 64.3308L167.539 64.6608C170.059 65.2308 172.579 65.9308 175.079 66.7408C177.589 67.5508 180.029 68.4708 182.409 69.4908H182.399Z" fill="#000000"/>
<path d="M192.52 74.6397C194.74 75.9697 196.92 77.3997 199.05 78.9497C201.18 80.4997 203.22 82.1297 205.17 83.8297L205.37 83.5397L232.94 45.5997L242.01 33.1197C239.99 31.4897 237.93 29.8997 235.81 28.3597C233.69 26.8197 231.54 25.3397 229.37 23.9297L220.3 36.4097L192.73 74.3497L192.53 74.6397H192.52Z" fill="#000000"/>
<path d="M213.191 91.8498C214.891 93.7998 216.521 95.8398 218.071 97.9698C219.621 100.1 221.061 102.28 222.381 104.5L222.661 104.29L260.601 76.7198L273.081 67.6498C271.671 65.4798 270.191 63.3298 268.651 61.2098C267.111 59.0898 265.521 57.0198 263.891 55.0098L251.411 64.0698L213.471 91.6398L213.191 91.8498Z" fill="#000000"/>
<path d="M227.861 114.5L227.531 114.61C228.551 116.99 229.461 119.43 230.281 121.93C231.091 124.44 231.791 126.95 232.361 129.47L232.691 129.36L277.301 114.87L291.971 110.1C291.301 107.6 290.561 105.1 289.751 102.6C288.941 100.11 288.071 97.6505 287.141 95.2305L272.471 99.9905L227.861 114.48V114.5Z" fill="#000000"/>
<path d="M296.809 140.689H171.949V187.589H187.589V156.329H296.809C296.939 153.729 297.009 151.129 297.009 148.499C297.009 145.869 296.939 143.269 296.809 140.689Z" fill="#000000"/>
<path d="M232.699 167.639L232.369 167.529C231.799 170.049 231.099 172.569 230.289 175.069C229.479 177.579 228.559 180.019 227.539 182.399L227.869 182.509L272.479 196.999L287.149 201.769C288.079 199.349 288.949 196.889 289.759 194.399C290.569 191.909 291.309 189.409 291.979 186.909L277.309 182.139L232.699 167.649V167.639Z" fill="#000000"/>
<path d="M222.661 192.72L222.381 192.52C221.051 194.74 219.621 196.92 218.071 199.05C216.521 201.18 214.891 203.22 213.191 205.17L213.481 205.37L251.421 232.94L263.901 242.01C265.531 239.99 267.121 237.93 268.661 235.81C270.201 233.69 271.681 231.54 273.091 229.37L260.611 220.3L222.671 192.73L222.661 192.72Z" fill="#000000"/>
<path d="M205.372 213.469L205.162 213.189C203.212 214.889 201.172 216.519 199.042 218.069C196.912 219.619 194.732 221.059 192.512 222.379L192.722 222.659L220.292 260.599L229.362 273.079C231.532 271.669 233.682 270.189 235.802 268.649C237.922 267.109 239.992 265.519 242.002 263.889L232.942 251.409L205.372 213.469Z" fill="#000000"/>
<path d="M182.509 227.859L182.399 227.529C180.019 228.549 177.579 229.459 175.079 230.279C172.569 231.089 170.059 231.789 167.539 232.359L167.649 232.689L182.139 277.299L186.909 291.969C189.409 291.299 191.909 290.559 194.409 289.749C196.899 288.939 199.359 288.069 201.779 287.139L197.019 272.469L182.529 227.859H182.509Z" fill="#000000"/>
<path d="M114.608 227.529L114.498 227.859L100.008 272.469L95.2383 287.139C97.6583 288.069 100.118 288.939 102.608 289.749C105.098 290.559 107.598 291.299 110.098 291.969L114.868 277.299L129.358 232.689L129.468 232.359C126.948 231.789 124.428 231.089 121.928 230.279C119.418 229.469 116.978 228.549 114.598 227.529H114.608Z" fill="#000000"/>
<path d="M104.502 222.379C102.282 221.049 100.102 219.619 97.9717 218.069C95.8417 216.519 93.8017 214.889 91.8517 213.189L91.6517 213.479L64.0817 251.419L55.0117 263.899C57.0317 265.529 59.0917 267.119 61.2117 268.659C63.3317 270.199 65.4817 271.679 67.6517 273.089L76.7217 260.609L104.292 222.669L104.492 222.389L104.502 222.379Z" fill="#000000"/>
<path d="M83.8314 205.16C82.1314 203.21 80.5014 201.17 78.9514 199.04C77.4014 196.91 75.9614 194.73 74.6414 192.51L74.3614 192.72L36.4214 220.29L23.9414 229.36C25.3514 231.53 26.8314 233.68 28.3714 235.8C29.9114 237.92 31.5014 239.99 33.1314 242L45.6114 232.94L83.5514 205.37L83.8314 205.16Z" fill="#000000"/>
<path d="M69.1491 182.509L69.4791 182.399C68.4591 180.019 67.5491 177.579 66.7291 175.079C65.9191 172.569 65.2191 170.059 64.6491 167.539L64.3191 167.649L19.7091 182.139L5.03906 186.909C5.70906 189.409 6.44906 191.909 7.25906 194.409C8.06906 196.899 8.93906 199.359 9.86906 201.779L24.5391 197.019L69.1491 182.529V182.509Z" fill="#000000"/>
<path d="M125.06 156.33V109.43H109.42V140.69H0.2C0.07 143.28 0 145.89 0 148.51C0 151.13 0.07 153.74 0.2 156.32H125.06V156.33Z" fill="#000000"/>
<path d="M64.3191 129.37L64.6491 129.48C65.2191 126.96 65.9191 124.44 66.7291 121.94C67.5391 119.43 68.4591 116.99 69.4791 114.61L69.1491 114.5L24.5391 100.01L9.86906 95.2402C8.93906 97.6602 8.06906 100.12 7.25906 102.61C6.44906 105.1 5.70906 107.6 5.03906 110.1L19.7091 114.87L64.3191 129.36V129.37Z" fill="#000000"/>
<path d="M74.3519 104.3L74.6319 104.5C75.9619 102.28 77.3919 100.1 78.9419 97.9698C80.4919 95.8398 82.1219 93.7998 83.8219 91.8498L83.5319 91.6498L45.5919 64.0798L33.1119 55.0098C31.4819 57.0298 29.8919 59.0898 28.3519 61.2098C26.8119 63.3298 25.3319 65.4798 23.9219 67.6498L36.4019 76.7198L74.3419 104.29L74.3519 104.3Z" fill="#000000"/>
<path d="M91.6495 83.5397L91.8595 83.8197C93.8095 82.1197 95.8495 80.4897 97.9795 78.9397C100.11 77.3897 102.29 75.9497 104.51 74.6297L104.3 74.3497L76.7295 36.4097L67.6595 23.9297C65.4895 25.3397 63.3395 26.8197 61.2195 28.3597C59.0995 29.8997 57.0295 31.4897 55.0195 33.1197L64.0795 45.5997L91.6495 83.5397Z" fill="#000000"/>
<path d="M114.5 69.1491L114.61 69.4791C116.99 68.4591 119.43 67.5491 121.93 66.7291C124.44 65.9191 126.95 65.2191 129.47 64.6491L129.36 64.3191L114.87 19.7091L110.1 5.03906C107.6 5.70906 105.1 6.44906 102.6 7.25906C100.11 8.06906 97.6505 8.93906 95.2305 9.86906L99.9905 24.5391L114.48 69.1491H114.5Z" fill="#000000"/>
</svg>
